<svg width="99" height="30" viewBox="0 0 99 30" fill="none" xmlns="http://www.w3.org/2000/svg">
<g filter="url(#filter0_d)">
<path d="M23.129 10.4339V6.90192H27.7194V6.34812H23.129V2.95151H28.2609V2.38541H22.5014V11H28.4455V10.4339H23.129ZM30.2416 11H33.6505C36.3825 11 38.2285 9.20324 38.2285 6.6927C38.2285 4.18217 36.3825 2.38541 33.6505 2.38541H30.2416V11ZM30.8692 10.4339V2.95151H33.6012C36.0379 2.95151 37.6009 4.50214 37.6009 6.6927C37.6009 8.88327 36.0379 10.4339 33.6012 10.4339H30.8692ZM50.5558 2.38541L47.9099 10.1508L45.2271 2.38541H44.6241L41.9289 10.1385L39.3076 2.38541H38.6431L41.572 11H42.2366L44.9194 3.27148L47.59 11H48.2545L51.1712 2.38541H50.5558ZM58.66 11H59.3369L55.3741 2.38541H54.7465L50.7838 11H51.4607L52.5559 8.57561H57.5524L58.66 11ZM52.8021 8.04643L55.0542 3.07457L57.3186 8.04643H52.8021ZM67.1033 11L64.9496 7.98489C66.2295 7.60339 66.9679 6.65578 66.9679 5.28976C66.9679 3.46838 65.6634 2.38541 63.4974 2.38541H60.4085V11H61.0361V8.1818H63.4974C63.7928 8.1818 64.0635 8.15718 64.3343 8.12026L66.3895 11H67.1033ZM61.0361 7.628V2.95151H63.4974C65.3434 2.95151 66.3279 3.80066 66.3279 5.28976C66.3279 6.76654 65.3434 7.628 63.4974 7.628H61.0361ZM68.7736 11H72.1825C74.9146 11 76.7605 9.20324 76.7605 6.6927C76.7605 4.18217 74.9146 2.38541 72.1825 2.38541H68.7736V11ZM69.4012 10.4339V2.95151H72.1333C74.57 2.95151 76.1329 4.50214 76.1329 6.6927C76.1329 8.88327 74.57 10.4339 72.1333 10.4339H69.4012Z" fill="#B4B7BE"/>
<path d="M29.2811 20.332H29.865L26.4466 12.9006H25.9051L22.4867 20.332H23.0706L24.0154 18.2406H28.3256L29.2811 20.332ZM24.2277 17.7841L26.1705 13.4951L28.1239 17.7841H24.2277ZM36.5647 20.332L34.7069 17.731C35.811 17.4019 36.4479 16.5845 36.4479 15.4061C36.4479 13.8349 35.3226 12.9006 33.4541 12.9006H30.7895V20.332H31.3309V17.9009H33.4541C33.7089 17.9009 33.9425 17.8797 34.1761 17.8478L35.949 20.332H36.5647ZM31.3309 17.4232V13.389H33.4541C35.0466 13.389 35.8959 14.1215 35.8959 15.4061C35.8959 16.68 35.0466 17.4232 33.4541 17.4232H31.3309ZM38.5471 19.8437V16.7968H42.5069V16.3191H38.5471V13.389H42.9741V12.9006H38.0056V20.332H43.1333V19.8437H38.5471ZM47.7837 20.3851C48.8347 20.3851 49.7795 20.0348 50.4271 19.3447L50.0874 18.9944C49.4504 19.6207 48.6754 19.8861 47.8049 19.8861C45.9046 19.8861 44.4714 18.4848 44.4714 16.6163C44.4714 14.7479 45.9046 13.3465 47.8049 13.3465C48.6754 13.3465 49.4504 13.6013 50.0874 14.2277L50.4271 13.8773C49.7795 13.1873 48.8347 12.8475 47.7837 12.8475C45.5755 12.8475 43.9299 14.4506 43.9299 16.6163C43.9299 18.7821 45.5755 20.3851 47.7837 20.3851ZM57.3258 12.9006V16.3191H52.3574V12.9006H51.816V20.332H52.3574V16.7968H57.3258V20.332H57.8672V12.9006H57.3258ZM69.3505 12.9006L67.068 19.5995L64.7537 12.9006H64.2335L61.9085 19.5889L59.6472 12.9006H59.0739L61.6006 20.332H62.1739L64.4883 13.665L66.792 20.332H67.3653L69.8813 12.9006H69.3505ZM76.3416 20.332H76.9255L73.507 12.9006H72.9656L69.5472 20.332H70.1311L71.0759 18.2406H75.3861L76.3416 20.332ZM71.2882 17.7841L73.231 13.4951L75.1844 17.7841H71.2882Z" fill="#B4B7BE"/>
<line x1="93.5303" y1="10.5303" x2="83.5303" y2="20.5303" stroke="#C4C4C4" stroke-width="1.5"/>
<line y1="-0.75" x2="14.1421" y2="-0.75" transform="matrix(0.707107 0.707107 0.707107 -0.707107 84 1)" stroke="#C4C4C4" stroke-width="1.5"/>
<line y1="-0.75" x2="14.1421" y2="-0.75" transform="matrix(0.707107 0.707107 0.707107 -0.707107 6 10)" stroke="#C4C4C4" stroke-width="1.5"/>
<line x1="15.5303" y1="1.53033" x2="5.53033" y2="11.5303" stroke="#C4C4C4" stroke-width="1.5"/>
</g>
<defs>
<filter id="filter0_d" x="0.939453" y="1" width="97.1212" height="28.0607" filterUnits="userSpaceOnUse" color-interpolation-filters="sRGB">
<feFlood flood-opacity="0" result="BackgroundImageFix"/>
<feColorMatrix in="SourceAlpha" type="matrix" values="0 0 0 0 0 0 0 0 0 0 0 0 0 0 0 0 0 0 127 0"/>
<feOffset dy="4"/>
<feGaussianBlur stdDeviation="2"/>
<feColorMatrix type="matrix" values="0 0 0 0 0 0 0 0 0 0 0 0 0 0 0 0 0 0 0.25 0"/>
<feBlend mode="normal" in2="BackgroundImageFix" result="effect1_dropShadow"/>
<feBlend mode="normal" in="SourceGraphic" in2="effect1_dropShadow" result="shape"/>
</filter>
</defs>
</svg>
